<svg width="150" height="57" viewBox="0 0 150 57" fill="none" xmlns="http://www.w3.org/2000/svg">
<g clip-path="url(#clip0_40_268)">
<path d="M146.078 0.165283H3.94238C1.7739 0.165283 0.0159912 1.92319 0.0159912 4.09167V52.7789C0.0159912 54.9474 1.7739 56.7053 3.94238 56.7053H146.078C148.246 56.7053 150.004 54.9474 150.004 52.7789V4.09167C150.004 1.92319 148.246 0.165283 146.078 0.165283Z" fill="white"/>
<path d="M146.078 0.361816H3.94235C1.88229 0.361816 0.21228 2.03183 0.21228 4.09189V52.7791C0.21228 54.8392 1.88229 56.5092 3.94235 56.5092H146.078C148.138 56.5092 149.808 54.8392 149.808 52.7791V4.09189C149.808 2.03183 148.138 0.361816 146.078 0.361816Z" stroke="#E5E5E5" stroke-width="0.392639"/>
<path d="M19.7453 35.4448C19.1676 35.4352 18.5977 35.3117 18.0678 35.0814C17.5379 34.8511 17.0583 34.5185 16.6571 34.1028C16.2559 33.687 15.9408 33.1962 15.7296 32.6584C15.5184 32.1206 15.4153 31.5463 15.4263 30.9686C15.4124 29.8059 15.8585 28.6848 16.6675 27.8495C17.4764 27.0142 18.5827 26.5324 19.7453 26.5091C20.516 26.4743 21.2816 26.6504 21.9597 27.0185C22.6377 27.3866 23.2028 27.9327 23.5935 28.598C23.6596 28.713 23.6968 28.8423 23.7024 28.9749V32.9318C23.6955 33.0354 23.6688 33.1367 23.6238 33.2303C23.2327 33.911 22.6671 34.4751 21.9853 34.8644C21.3036 35.2536 20.5303 35.454 19.7453 35.4448ZM27.5824 38.8521V23.1465H23.7024V24.465C23.116 23.9173 22.4271 23.4912 21.6751 23.2112C20.9232 22.9311 20.123 22.8026 19.3212 22.8332C18.2699 22.841 17.231 23.0591 16.2652 23.4746C15.2995 23.89 14.4265 24.4944 13.6978 25.2523C12.969 26.0101 12.3994 26.906 12.0221 27.8874C11.6448 28.8687 11.4673 29.9155 11.5007 30.9663C11.5007 35.5068 14.8773 39.1655 19.3212 39.1655C20.1252 39.1904 20.9263 39.0561 21.6782 38.7702C22.4301 38.4844 23.118 38.0526 23.7024 37.4998V38.8497L27.5824 38.8521ZM44.4329 38.8521V30.357C44.4483 29.3755 44.2684 28.4007 43.9037 27.4893C43.539 26.578 42.9969 25.7481 42.3086 25.0482C41.6204 24.3483 40.8 23.7922 39.8949 23.4122C38.9898 23.0322 38.018 22.8359 37.0364 22.8348C36.0545 22.8348 35.0823 23.0302 34.1767 23.4098C33.2711 23.7894 32.4502 24.3455 31.7618 25.0457C31.0734 25.7459 30.5313 26.5761 30.1671 27.488C29.8029 28.3999 29.624 29.3752 29.6407 30.357V38.8521H33.5183V30.357C33.4957 29.8839 33.5704 29.4112 33.7377 28.9681C33.905 28.525 34.1615 28.1209 34.4911 27.7808C34.8208 27.4407 35.2168 27.1718 35.6545 26.9908C36.0921 26.8097 36.562 26.7204 37.0356 26.7282C37.5089 26.7215 37.9788 26.8116 38.416 26.9931C38.8532 27.1745 39.2483 27.4434 39.5778 27.7832C39.9073 28.1231 40.1638 28.5267 40.3316 28.9693C40.4994 29.4119 40.575 29.8841 40.5536 30.357V38.8521H44.4329ZM54.296 35.4448C53.7183 35.4352 53.1484 35.3117 52.6185 35.0814C52.0886 34.8511 51.609 34.5185 51.2078 34.1028C50.8066 33.687 50.4915 33.1962 50.2803 32.6584C50.0691 32.1206 49.9659 31.5463 49.977 30.9686C49.9631 29.8059 50.4092 28.6848 51.2182 27.8495C52.0271 27.0142 53.1334 26.5324 54.296 26.5091C55.0634 26.4942 55.8216 26.679 56.4962 27.0451C57.1707 27.4113 57.7382 27.9464 58.1438 28.598C58.2099 28.713 58.2475 28.8423 58.2531 28.9749V32.9492C58.2452 33.0471 58.2184 33.1424 58.1745 33.2303C57.7827 33.9108 57.2168 34.4747 56.5349 34.8639C55.8529 35.2531 55.0796 35.4536 54.2945 35.4448M62.1315 38.8521V18.4349H58.2515V24.4635C57.6682 23.9082 56.9808 23.4739 56.2289 23.1855C55.477 22.897 54.6754 22.7602 53.8704 22.7829C52.8165 22.7965 51.7762 23.0201 50.8098 23.4406C49.8434 23.8612 48.9705 24.4702 48.2423 25.2322C47.5141 25.9941 46.9453 26.8936 46.569 27.8781C46.1927 28.8625 46.0163 29.9122 46.0506 30.9656C46.0506 35.5061 49.4273 39.1646 53.8704 39.1646C54.6744 39.1898 55.4755 39.0556 56.2274 38.7698C56.9793 38.4839 57.6673 38.052 58.2515 37.4991V38.8489L62.1315 38.8521ZM68.0675 38.8521V30.4653C68.0675 27.9846 69.3702 26.6662 71.8516 26.6662V22.8348C66.8573 22.8348 64.189 25.4882 64.189 30.4653V38.8521H68.0675ZM80.3321 35.2571C79.7701 35.2559 79.2136 35.144 78.6948 34.9277C78.1761 34.7115 77.7052 34.3951 77.3087 33.9968C76.9122 33.5985 76.5981 33.1261 76.3842 32.6064C76.1704 32.0867 76.0612 31.5299 76.0625 30.9679C76.0636 29.8357 76.5138 28.7503 77.3145 27.9498C78.1151 27.1493 79.2007 26.6991 80.3329 26.6983C80.8953 26.6957 81.4525 26.8044 81.9728 27.0178C82.4932 27.2313 82.9661 27.5454 83.3647 27.9422C83.7633 28.339 84.0796 28.8107 84.2953 29.33C84.511 29.8494 84.6221 30.4062 84.622 30.9686C84.6239 31.5324 84.514 32.0911 84.2991 32.6123C84.0842 33.1336 83.7683 33.6071 83.3697 34.0058C82.971 34.4044 82.4975 34.7203 81.9763 34.9352C81.455 35.1501 80.8967 35.2597 80.3329 35.2579M80.3329 39.1678C81.4109 39.17 82.4789 38.9597 83.4755 38.5486C84.4721 38.1376 85.3778 37.534 86.1408 36.7723C86.9038 36.0107 87.509 35.106 87.9218 34.1101C88.3347 33.1143 88.5472 32.0467 88.5468 30.9686C88.5443 29.8945 88.3293 28.8315 87.9146 27.8406C87.4999 26.8497 86.8937 25.9505 86.1304 25.1948C85.3671 24.439 84.462 23.8415 83.4671 23.4366C82.4721 23.0317 81.407 22.8275 80.3329 22.8356C79.2601 22.8295 78.1967 23.0352 77.2036 23.441C76.2106 23.8468 75.3072 24.4446 74.5457 25.2002C73.7841 25.9558 73.1793 26.8543 72.7658 27.8442C72.3522 28.8341 72.1384 29.8959 72.1362 30.9686C72.1355 32.0453 72.3472 33.1116 72.7589 34.1065C73.1705 35.1014 73.7741 36.0054 74.5353 36.7669C75.2965 37.5283 76.2004 38.1322 77.1952 38.5442C78.19 38.9562 79.2562 39.1681 80.3329 39.1678ZM92.2524 21.9561C92.8497 21.9525 93.4215 21.7127 93.8425 21.2889C94.2635 20.8651 94.4997 20.2918 94.4993 19.6945C94.501 19.3983 94.4439 19.1047 94.3317 18.8305C94.2196 18.5563 94.0543 18.307 93.8456 18.0969C93.6368 17.8867 93.3889 17.7198 93.1155 17.6059C92.8421 17.4919 92.5486 17.4332 92.2524 17.4329C91.9563 17.4334 91.6636 17.4923 91.3904 17.6064C91.1172 17.7204 90.8689 17.8873 90.6603 18.0975C90.4518 18.3076 90.2869 18.5568 90.1749 18.8309C90.063 19.1049 90.0064 19.3984 90.0081 19.6945C90.0075 20.2915 90.2433 20.8644 90.6638 21.2882C91.0843 21.712 91.6554 21.9521 92.2524 21.9561ZM94.1834 23.1489H90.3072V38.8545H94.1876L94.1834 23.1489ZM104.189 35.4456C103.611 35.436 103.041 35.3125 102.511 35.0822C101.981 34.852 101.502 34.5194 101.101 34.1036C100.699 33.6878 100.384 33.1969 100.173 32.6591C99.9618 32.1213 99.8587 31.5472 99.8697 30.9695C99.8558 29.8068 100.302 28.6857 101.111 27.8504C101.92 27.015 103.026 26.5332 104.189 26.5099C104.956 26.4947 105.714 26.6793 106.389 27.0455C107.063 27.4117 107.631 27.9469 108.037 28.5987C108.104 28.7131 108.143 28.8427 108.147 28.9756V32.9649C108.141 33.0583 108.114 33.1491 108.069 33.2311C107.678 33.9117 107.112 34.4757 106.431 34.8649C105.749 35.2542 104.976 35.4546 104.191 35.4456M112.026 38.8529V18.4356H108.148V24.4642C107.562 23.9166 106.872 23.4905 106.12 23.2106C105.369 22.9306 104.569 22.8024 103.767 22.8332C102.716 22.841 101.676 23.0592 100.711 23.4746C99.7447 23.89 98.8716 24.4944 98.1427 25.2522C97.4139 26.01 96.8442 26.9059 96.4667 27.8873C96.0893 28.8686 95.9118 29.9155 95.9449 30.9663C95.9449 35.5068 99.3215 39.1803 103.767 39.1803C104.572 39.2028 105.374 39.0659 106.125 38.7775C106.877 38.4891 107.565 38.0549 108.148 37.4998V38.8497L112.026 38.8529Z" fill="#77C159"/>
<path d="M132.475 38.8551L138.851 23.1339H135.648L130.433 36.7663H131.516L126.288 23.1511H122.99L129.366 38.8567L132.475 38.8551ZM122.22 39.0428L122.236 36.2488H121.891C119.614 36.2488 118.011 34.8816 118.011 32.5729V25.7409H122.11V23.1496H118.011V18.8926H115.17V32.5713C115.17 36.639 117.808 39.0412 121.891 39.0412L122.22 39.0428Z" fill="#868686"/>
</g>
<defs>
<clipPath id="clip0_40_268">
<rect width="149.988" height="56.54" fill="white" transform="translate(0.0159912 0.165283)"/>
</clipPath>
</defs>
</svg>
