<svg width="151" height="57" viewBox="0 0 151 57" fill="none" xmlns="http://www.w3.org/2000/svg">
<path d="M146.478 56.5092H4.34237C2.2856 56.5092 0.612305 54.8359 0.612305 52.7791V4.09189C0.612305 2.03511 2.2856 0.361816 4.34237 0.361816H146.478C148.534 0.361816 150.208 2.03511 150.208 4.09189V52.7791C150.208 54.8359 148.534 56.5092 146.478 56.5092Z" fill="white"/>
<path d="M4.34238 0.557922C2.39387 0.557922 0.808632 2.14316 0.808632 4.09167V52.7789C0.808632 54.7274 2.39387 56.3126 4.34238 56.3126H146.478C148.426 56.3126 150.011 54.7274 150.011 52.7789V4.09167C150.011 2.14316 148.426 0.557922 146.478 0.557922H4.34238ZM4.34238 0.165283H146.478C148.646 0.165283 150.404 1.92318 150.404 4.09167V52.7789C150.404 54.9474 148.646 56.7053 146.478 56.7053H4.34238C2.17389 56.7053 0.415993 54.9474 0.415993 52.7789V4.09167C0.415993 1.92318 2.17389 0.165283 4.34238 0.165283Z" fill="#E5E5E5"/>
<path d="M85.504 34.5278C85.1435 34.5278 84.7911 34.4209 84.4914 34.2207C84.1917 34.0204 83.9581 33.7357 83.8201 33.4027C83.6822 33.0696 83.6461 32.7032 83.7164 32.3496C83.7867 31.9961 83.9603 31.6713 84.2152 31.4164C84.4701 31.1615 84.7949 30.9879 85.1484 30.9176C85.502 30.8473 85.8684 30.8834 86.2015 31.0213C86.5345 31.1593 86.8192 31.3929 87.0195 31.6926C87.2197 31.9923 87.3266 32.3447 87.3266 32.7052C87.326 33.1884 87.1338 33.6516 86.7921 33.9933C86.4504 34.335 85.9872 34.5272 85.504 34.5278ZM65.3616 34.5278C65.0011 34.528 64.6486 34.4212 64.3488 34.221C64.049 34.0209 63.8152 33.7363 63.6772 33.4032C63.5391 33.0702 63.5029 32.7037 63.5731 32.3501C63.6434 31.9965 63.8169 31.6717 64.0718 31.4167C64.3266 31.1617 64.6514 30.988 65.005 30.9176C65.3586 30.8473 65.7251 30.8833 66.0581 31.0212C66.3912 31.1592 66.6759 31.3928 66.8762 31.6925C67.0766 31.9923 67.1835 32.3447 67.1835 32.7052C67.1828 33.1883 66.9907 33.6514 66.6492 33.993C66.3077 34.3347 65.8447 34.527 65.3616 34.5278ZM86.1574 23.5512L89.7995 17.2431C89.8953 17.0693 89.9192 16.865 89.866 16.6738C89.8128 16.4827 89.6867 16.32 89.5149 16.2208C89.3431 16.1216 89.1392 16.0937 88.9471 16.1432C88.7549 16.1926 88.5898 16.3154 88.4873 16.4853L84.7965 22.8727C81.8504 21.5518 78.6583 20.8689 75.4297 20.8689C72.201 20.8689 69.0089 21.5518 66.0629 22.8727L62.3721 16.4853C62.3234 16.397 62.2576 16.3194 62.1786 16.2569C62.0995 16.1944 62.0088 16.1483 61.9118 16.1213C61.8147 16.0942 61.7132 16.0868 61.6132 16.0995C61.5133 16.1122 61.4168 16.1447 61.3296 16.1951C61.2423 16.2455 61.166 16.3128 61.105 16.393C61.0441 16.4733 60.9998 16.5649 60.9747 16.6624C60.9495 16.76 60.9441 16.8616 60.9588 16.9613C60.9734 17.061 61.0078 17.1568 61.0599 17.2431L64.702 23.5512C61.5558 25.2639 58.8873 27.7355 56.9388 30.7414C54.9903 33.7473 53.8237 37.1924 53.5448 40.7637H97.3075C97.029 37.1932 95.8633 33.7487 93.9162 30.7428C91.969 27.737 89.3021 25.265 86.1574 23.5512Z" fill="#3DDB85"/>
</svg>
