<svg width="150" height="58" viewBox="0 0 150 58" fill="none" xmlns="http://www.w3.org/2000/svg">
<g clip-path="url(#clip0_40_483)">
<path d="M146.068 0.725342H3.93237C1.76389 0.725342 0.00598145 2.48325 0.00598145 4.65173V53.339C0.00598145 55.5074 1.76389 57.2653 3.93237 57.2653H146.068C148.236 57.2653 149.994 55.5074 149.994 53.339V4.65173C149.994 2.48325 148.236 0.725342 146.068 0.725342Z" fill="white"/>
<path d="M146.068 0.921875H3.93234C1.87228 0.921875 0.202271 2.59188 0.202271 4.65194V53.3392C0.202271 55.3992 1.87228 57.0692 3.93234 57.0692H146.068C148.128 57.0692 149.798 55.3992 149.798 53.3392V4.65194C149.798 2.59188 148.128 0.921875 146.068 0.921875Z" stroke="#E5E5E5" stroke-width="0.392639"/>
<path d="M79.1525 19.7637V23.3178H83.6113V24.5915H79.1525V35.0844C79.1023 35.9375 79.2819 36.7885 79.6724 37.5486C79.8657 37.8404 80.1346 38.0741 80.4506 38.2247C80.7666 38.3752 81.1176 38.4368 81.4659 38.403C81.8134 38.4069 82.1607 38.3845 82.5049 38.3363C82.7549 38.3009 83.0015 38.2447 83.2422 38.1682L83.4096 39.3752C82.7284 39.6478 81.9972 39.7735 81.2641 39.7443C80.6344 39.767 80.0083 39.6405 79.4368 39.3752C78.9716 39.144 78.5777 38.7913 78.2967 38.3543C77.9996 37.8728 77.7999 37.3376 77.7092 36.7791C77.5932 36.1206 77.5368 35.453 77.5411 34.7845V24.5915H74.8956V23.3178H77.5443V20.3667L79.1525 19.7637ZM86.1933 23.317L89.8841 33.3073C90.1982 34.09 90.4776 34.8274 90.7221 35.5195C90.9666 36.2116 91.2021 36.8922 91.4288 37.5612H91.4955C91.7185 36.9131 91.9588 36.237 92.2164 35.5328C92.4739 34.8287 92.7588 34.0855 93.0708 33.3034L96.7923 23.3131H98.4689L92.0657 39.405H90.6907L84.5231 23.3139L86.1933 23.317Z" fill="#231F20"/>
<path d="M62.4183 19.8869C62.8167 19.3428 63.3287 18.8918 63.9186 18.565C64.5085 18.2383 65.1624 18.0436 65.835 17.9944C65.8925 18.6198 65.8224 19.2503 65.6291 19.8479C65.4358 20.4454 65.1233 20.9975 64.7105 21.4708C64.3455 21.9799 63.8563 22.3871 63.2894 22.6538C62.7226 22.9204 62.0969 23.0376 61.472 22.9942C61.4061 22.439 61.4561 21.8761 61.619 21.3413C61.7819 20.8064 62.054 20.3111 62.4183 19.8869ZM61.6526 24.235C62.3876 24.235 63.7517 23.2243 65.5288 23.2243C66.3662 23.1882 67.1988 23.3695 67.9454 23.7507C68.692 24.1319 69.3271 24.7 69.7889 25.3996C69.0674 25.8174 68.4693 26.4188 68.0556 27.1426C67.6418 27.8665 67.427 28.687 67.4331 29.5207C67.4374 30.4637 67.717 31.3849 68.2375 32.1712C68.7579 32.9575 69.4966 33.5748 70.3629 33.9473C70.3629 33.9473 68.3149 39.7128 65.5476 39.7128C64.277 39.7128 63.2891 38.8561 61.9503 38.8561C60.6114 38.8561 59.2316 39.7466 58.3537 39.7466C55.8274 39.7466 52.6353 34.2755 52.6353 29.8796C52.6353 25.4836 55.3374 23.2832 57.8707 23.2832C59.5198 23.2832 60.7967 24.2334 61.6526 24.2334V24.235Z" fill="#231F20"/>
</g>
<defs>
<clipPath id="clip0_40_483">
<rect width="149.988" height="56.54" fill="white" transform="translate(0.00598145 0.725342)"/>
</clipPath>
</defs>
</svg>
