<svg width="99" height="28" viewBox="0 0 99 28" fill="none" xmlns="http://www.w3.org/2000/svg">
<path d="M34.2355 20.4485L34.4851 24.3996H34.5484C34.6733 23.9807 34.832 23.5725 35.0227 23.1791L36.384 20.4485H38.5976L38.9319 24.3996H38.9952C39.1068 24.0005 39.2478 23.6101 39.4169 23.2318L40.7479 20.4485H43.754L39.6933 27.0697H37.1748L36.9528 23.4689H36.8583C36.7755 23.812 36.6625 24.147 36.5204 24.47L35.225 27.0688H32.769L31.2418 20.4485H34.2355Z" fill="#020A19"/>
<path d="M43.5401 20.4478H46.3242L45.9008 22.6765H47.674L48.0948 20.4478H50.8789L49.621 27.0689H46.8368L47.2737 24.7688H45.5032L45.0663 27.0689H42.2822L43.5401 20.4478Z" fill="#020A19"/>
<path d="M59.0245 23.7757C58.6207 25.9001 56.408 27.1732 53.9849 27.1732C51.5618 27.1732 49.8314 25.8992 50.2352 23.7757C50.6302 21.6949 52.8687 20.3425 55.282 20.3425C57.6953 20.3425 59.4177 21.694 59.0245 23.7757ZM53.1406 23.8105C52.9962 24.5656 53.5097 25.0844 54.3887 25.0844C54.7806 25.1091 55.1687 24.9949 55.4848 24.762C55.8009 24.529 56.0249 24.1921 56.1173 23.8105C56.2502 23.1071 55.7937 22.5205 54.8764 22.5205C54.4813 22.4984 54.091 22.6153 53.7731 22.8509C53.4552 23.0866 53.2299 23.426 53.1362 23.8105H53.1406ZM59.6602 20.4477H62.5478L61.6928 24.9436H64.1177L63.7129 27.068H58.4005L59.6602 20.4477ZM70.9483 24.6975L71.0767 24.7947C71.559 25.1731 72.1506 25.3857 72.7634 25.4009C73.0478 25.4009 73.5194 25.3037 73.5765 25.006C73.6335 24.7082 73.2591 24.6815 73.005 24.6369L72.4416 24.5477C71.3451 24.381 70.5035 23.8265 70.7014 22.7915C71.001 21.2198 72.8847 20.3416 74.6124 20.3416C75.4515 20.3221 76.2812 20.5218 77.0194 20.9211L75.9176 22.615C75.4506 22.2977 74.9013 22.1236 74.3369 22.114C74.0847 22.114 73.7004 22.1915 73.6496 22.4616C73.6023 22.7077 73.9536 22.7398 74.1667 22.787L74.797 22.9092C75.9755 23.1383 76.7582 23.6821 76.5443 24.8054C76.243 26.386 74.3654 27.1679 72.6466 27.1679C71.6351 27.1667 70.6343 26.9605 69.7047 26.5616L70.9483 24.6975Z" fill="#020A19"/>
<path d="M80.8636 24.6708L80.7477 23.5029C80.7225 23.2196 80.7136 22.935 80.721 22.6507H80.6149L79.7047 24.669L80.8636 24.6708ZM78.3496 27.068H75.2935L79.3124 20.4478H82.5049L84.081 27.0689H81.025L80.9189 26.2434H78.7383L78.3487 27.0689L78.3496 27.068Z" fill="#020A19"/>
<path d="M85.0991 20.4478H87.9867L87.1317 24.9427H89.5557L89.151 27.0671H83.8403L85.0991 20.4478ZM90.9456 20.4478H96.2892L95.9451 22.2575H93.5078L93.3874 22.8896H95.6099L95.2836 24.6111H93.0549L92.9328 25.2601H95.4521L95.1044 27.0698H89.6743L90.9456 20.4478Z" fill="#020A19"/>
<path d="M51.7695 8.54983L55.4148 8.41075L52.3525 18.4909H58.8944L61.9522 8.41075L65.5182 8.54983L66.9705 3.76335H53.2209L51.7695 8.54983ZM38.225 11.1673C37.3103 15.8922 32.2982 18.7281 26.8137 18.7281C21.3292 18.7281 17.4075 15.8958 18.3231 11.1673C19.2146 6.53683 24.2881 3.52979 29.7557 3.52979C35.2233 3.52979 39.1272 6.53682 38.225 11.1664V11.1673ZM24.889 11.2448C24.5645 12.9253 25.7243 14.0771 27.707 14.0771C28.5881 14.1392 29.463 13.8896 30.1786 13.3718C30.8942 12.854 31.405 12.1011 31.6216 11.2448C31.9247 9.68202 30.8879 8.37419 28.8116 8.37419C27.9267 8.3244 27.052 8.58316 26.3367 9.10634C25.6213 9.62952 25.1097 10.3847 24.889 11.2431V11.2448Z" fill="#020A19"/>
<path d="M36.1932 17.3783C38.3024 18.2655 40.5672 18.7238 42.8554 18.7262C46.7468 18.7262 50.9983 16.986 51.6812 13.4717C52.1689 10.9755 50.3948 9.7604 47.723 9.25225L46.2966 8.97858C45.8143 8.88051 45.0173 8.80027 45.1234 8.25557C45.2402 7.65024 46.1103 7.47371 46.6835 7.47371C47.959 7.49382 49.2018 7.88036 50.2638 8.58721L52.76 4.81616C51.0818 3.92614 49.203 3.48253 47.304 3.52793C43.3894 3.52793 39.12 5.48122 38.4434 8.97858C37.9976 11.284 39.9045 12.5143 42.39 12.886L43.6649 13.0813C44.2435 13.1802 45.0913 13.2382 44.962 13.9014C44.8327 14.5647 43.7656 14.7805 43.1202 14.7805C41.7358 14.7484 40.3976 14.2766 39.2992 13.4334L39.0068 13.2185L36.1932 17.3783ZM79.7047 4.13328C78.3144 3.72855 76.8734 3.52469 75.4255 3.52793C70.1496 3.52793 65.3515 6.96645 64.5233 11.2635C63.7102 15.4633 67.0899 18.7262 72.2232 18.7262C73.8313 18.7361 75.434 18.5393 76.9918 18.1405L78.2488 12.6319C77.0879 13.4968 75.6846 13.9751 74.2371 13.9995C72.2802 13.9995 70.8271 12.7469 71.1409 11.1289C71.4503 9.52416 73.2983 8.25733 75.2534 8.25733C76.5831 8.28914 77.8523 8.81924 78.8096 9.74259L79.7047 4.13328ZM90.1789 3.52793C84.7122 3.52793 79.6423 6.53498 78.7463 11.1654C77.8316 15.8904 81.748 18.7262 87.2369 18.7262C92.7259 18.7262 97.7397 15.8939 98.6481 11.1654C99.5495 6.53676 95.6438 3.5315 90.178 3.5315L90.1789 3.52793ZM89.241 8.37234C91.3182 8.37234 92.3542 9.68106 92.051 11.243C91.8343 12.0992 91.3235 12.852 90.6079 13.3697C89.8923 13.8875 89.0175 14.1372 88.1365 14.0753C86.1546 14.0753 84.993 12.9226 85.3184 11.243C85.5388 10.3843 86.0503 9.62873 86.7657 9.1052C87.481 8.58167 88.3559 8.32264 89.241 8.37234ZM20.0036 0.829356C18.2686 0.340242 16.4741 0.0939398 14.6715 0.0974491C8.09135 0.0974491 2.11117 4.25272 1.07436 9.44838C0.0616135 14.5299 4.27573 18.4686 10.6785 18.4686C12.6826 18.4808 14.6804 18.243 16.6257 17.7607L18.1929 11.1012C16.733 12.1512 14.9862 12.7281 13.1881 12.7541C10.7462 12.7541 8.93472 11.2385 9.32519 9.28168C9.71121 7.34624 12.0131 5.81017 14.454 5.81017C16.1024 5.84433 17.6808 6.483 18.8892 7.60476L20.0036 0.829356Z" fill="#020A19"/>
<path d="M94.6302 17.7759C94.7127 17.4995 94.8848 17.2584 95.1192 17.0904C95.3537 16.9225 95.6373 16.8371 95.9255 16.8478C96.5451 16.8478 96.965 17.265 96.8669 17.7759C96.7845 18.0525 96.6126 18.2941 96.3782 18.4627C96.1438 18.6312 95.8601 18.7173 95.5716 18.7075C94.9475 18.7084 94.5321 18.2929 94.6302 17.7759ZM96.579 17.7759C96.6566 17.3613 96.3606 17.0903 95.8827 17.0903C95.6679 17.0727 95.4538 17.1319 95.2786 17.2575C95.1034 17.383 94.9785 17.5667 94.9261 17.7759C94.8477 18.1931 95.1348 18.465 95.6224 18.465C95.8374 18.4805 96.0509 18.42 96.2257 18.294C96.4006 18.168 96.5256 17.9846 96.579 17.7759ZM96.1805 18.2635H95.8916L95.7133 17.8516H95.5243L95.4468 18.2635H95.1945L95.3799 17.2891H95.946C96.1957 17.2891 96.3312 17.3586 96.2884 17.5869C96.275 17.6608 96.2364 17.7279 96.1792 17.7766C96.122 17.8254 96.0497 17.8528 95.9745 17.8543L96.1787 18.2653L96.1805 18.2635ZM95.8239 17.6653C95.946 17.6653 96.0521 17.6653 96.0726 17.5619C96.0887 17.4728 95.9835 17.4728 95.8595 17.4728H95.5921L95.5573 17.6627L95.8239 17.6653Z" fill="#020A19"/>
<path d="M1.5317 27.0795H32.1485V27.0688H32.1235L31.7366 25.3847H1.5317V27.0795ZM1.5317 24.6724H31.5672L31.1768 22.9786H1.52814L1.5317 24.6724ZM1.5317 22.2556H31.0011L30.8692 21.6386L30.6017 20.4601H1.53883L1.5317 22.2556ZM65.504 20.4485H70.8467L70.5026 22.2582H68.067L67.9467 22.8903H70.1701L69.8438 24.6118H67.6204L67.4974 25.2608H70.0159L69.6717 27.0706H64.2425L65.504 20.4485Z" fill="#020A19"/>
</svg>
