<svg width="16" height="8" viewBox="0 0 16 8" fill="none" xmlns="http://www.w3.org/2000/svg">
<path d="M1.33504 0.254761C1.51764 0.254386 1.69458 0.318086 1.83504 0.434761L7.87604 5.48576L13.923 0.612761C14.0615 0.500136 14.2346 0.438684 14.413 0.438761C14.4407 0.437242 14.4684 0.437242 14.496 0.438761C14.7019 0.461221 14.8905 0.563997 15.021 0.724761L15.028 0.740761C15.0995 0.82057 15.1536 0.914267 15.1872 1.01599C15.2207 1.1177 15.2329 1.22525 15.223 1.33189C15.213 1.43854 15.1811 1.54197 15.1294 1.63573C15.0776 1.72949 15.007 1.81154 14.922 1.87676L8.38104 7.14176C8.25403 7.22551 8.10518 7.27003 7.95304 7.26976H7.90104H7.87704C7.69466 7.27087 7.51769 7.20787 7.37704 7.09176L0.83204 1.63676C0.708936 1.53409 0.620455 1.39597 0.578641 1.24122C0.536827 1.08647 0.54371 0.922587 0.598351 0.771884C0.652993 0.621181 0.752742 0.490974 0.884022 0.398982C1.0153 0.306989 1.17174 0.257679 1.33204 0.257761L1.33504 0.254761Z" fill="#020A19" fill-opacity="0.5"/>
</svg>
