<svg width="56" height="21" viewBox="0 0 56 21" fill="none" xmlns="http://www.w3.org/2000/svg">
<path d="M0.798401 10.6018V20.7128H55.2695V0.493164H0.798401V10.6018ZM54.3599 10.6018V19.7986L28.049 19.789L1.73292 19.7748L1.71763 10.5871L1.708 1.40276H54.3599V10.6018Z" fill="#020A19"/>
<path d="M5.49365 5.39921V5.65805L5.69981 5.69146C5.80969 5.70618 5.97281 5.73564 6.05946 5.7481L6.21295 5.77188L6.20162 10.5963L6.18689 15.4161L5.84197 15.4546L5.49365 15.4994V16.0658H9.13488V15.4994L8.78995 15.4552L8.43994 15.4167L8.42521 13.2225L8.41558 11.0329H13.2065V13.2078C13.2065 15.0236 13.1969 15.3878 13.1391 15.4065C13.005 15.4367 12.8689 15.4575 12.7319 15.4688L12.3921 15.5022V16.0629H16.1302V15.4965L15.809 15.4631C15.6802 15.4523 15.5521 15.4334 15.4256 15.4065C15.3729 15.3872 15.3633 14.5246 15.3633 10.577V5.77188L15.5547 5.743C15.6601 5.72828 15.8323 5.69882 15.9382 5.68636L16.1296 5.65748V5.14038H12.3915V5.65748L12.6215 5.68636C12.7461 5.70562 12.9279 5.73054 13.0287 5.743L13.2054 5.77188V9.88377H8.41615V5.77188L8.62231 5.73847C9.18868 5.65238 9.13205 5.6858 9.13205 5.39864V5.14038H5.49365V5.39921Z" fill="#020A19"/>
<path d="M18.9502 5.27399C18.7384 5.38871 18.5712 5.57116 18.4754 5.79214C18.3796 6.01312 18.3607 6.25984 18.4217 6.49283C18.4829 6.72576 18.6205 6.93144 18.8124 7.07694C19.0043 7.22244 19.2395 7.29936 19.4803 7.29538C19.6374 7.29944 19.7934 7.26746 19.9362 7.20187C20.0791 7.13629 20.205 7.03885 20.3044 6.91704C20.4783 6.7253 20.5742 6.47545 20.5732 6.21659C20.5723 5.95773 20.4746 5.70857 20.2993 5.5181C20.1378 5.32677 19.9147 5.19773 19.6684 5.15317C19.422 5.10862 19.1684 5.15133 18.9502 5.27399Z" fill="#020A19"/>
<path d="M22.6928 5.37543V5.61046L23.0184 5.64899L23.3396 5.69317L23.3537 10.5895L23.3634 15.4807L23.2337 15.5096C23.1572 15.5237 23.0071 15.5481 22.8984 15.5622L22.6922 15.5957V16.0652H26.0939V15.5957L25.8928 15.5622C25.7795 15.5475 25.6277 15.5237 25.5575 15.5096L25.425 15.4807V5.14038H22.6928V5.37543Z" fill="#020A19"/>
<path d="M29.2701 6.35754L28.297 6.64978V8.30246H26.8126V9.0212H28.2449L28.2596 11.9295C28.2789 15.1681 28.2789 15.1346 28.6097 15.5945C29.1126 16.2844 30.6169 16.3563 32.4089 15.7713L32.7063 15.671V15.1437L32.5624 15.1771C32.3109 15.2045 32.058 15.2156 31.8052 15.2106C30.9335 15.2156 30.6554 15.1097 30.4458 14.6833L30.336 14.4567L30.3218 11.7381L30.3071 9.01951H32.1325V8.30077H30.3116V7.17481C30.3233 6.80086 30.3121 6.42655 30.2782 6.05396C30.2522 6.06019 29.8019 6.19442 29.2701 6.35754Z" fill="#020A19"/>
<path d="M36.6335 8.09168C35.8701 8.20462 35.1444 8.49694 34.5158 8.94464C33.8923 9.47005 33.4448 10.174 33.2336 10.9615C33.0774 11.7406 33.0515 12.5402 33.1571 13.3278C33.2416 14.0705 33.5722 14.7635 34.0961 15.2965C34.7192 15.9241 35.5766 16.2311 36.8748 16.2832C37.4695 16.3411 38.0698 16.2761 38.6384 16.0924C39.207 15.9086 39.7318 15.61 40.1801 15.215C40.5579 14.8652 40.8583 14.4403 41.062 13.9675C41.2658 13.4947 41.3684 12.9845 41.3633 12.4698C41.4099 11.818 41.3268 11.1635 41.1186 10.5441C40.962 10.0062 40.6623 9.52095 40.2515 9.14004C40.0153 8.88161 39.7297 8.67305 39.4116 8.52666C38.8099 8.22481 38.1442 8.07304 37.4712 8.08431C37.103 8.07695 36.7247 8.08205 36.6335 8.09168ZM37.4955 8.68581C37.7711 8.73673 38.0286 8.8585 38.2428 9.03914C38.457 9.21978 38.6205 9.45306 38.7172 9.71605C39.0461 10.5014 39.1857 11.3532 39.1244 12.2024C39.1244 14.6027 38.5399 15.6856 37.2322 15.6902C37.0262 15.7041 36.8196 15.6722 36.6274 15.5968C36.4351 15.5214 36.262 15.4043 36.1204 15.2541C35.5121 14.631 35.2142 13.1845 35.3393 11.4888C35.4645 9.79308 35.9765 8.86819 36.8867 8.68638C37.086 8.63366 37.2956 8.63366 37.495 8.68638L37.4955 8.68581Z" fill="#020A19"/>
<path d="M47.3272 8.16278C46.6102 8.2915 45.9357 8.59431 45.363 9.04463C45.2398 9.14562 45.107 9.23438 44.9666 9.30969C44.9236 9.14573 44.9087 8.97568 44.9224 8.80674V8.30154H42.1913V8.81864L42.4213 8.84752C42.5459 8.86677 42.7045 8.8917 42.7804 8.90416L42.9101 8.93304V15.4769L42.6371 15.5058C42.1913 15.5585 42.1913 15.5585 42.1913 15.827V16.062H45.64V15.8224C45.6502 15.7394 45.6387 15.6551 45.6066 15.5778C45.5873 15.5727 45.4299 15.5489 45.2571 15.5155L44.9473 15.4628V9.90608L45.1869 9.74805C45.3857 9.62886 45.5941 9.52638 45.8099 9.44165C46.0645 9.3234 46.3441 9.26916 46.6244 9.28364C46.7978 9.26116 46.9741 9.28076 47.1383 9.3408C47.3025 9.40083 47.4499 9.49953 47.5679 9.62855C47.9463 10.025 47.999 10.4719 47.9803 13.2839L47.9655 15.4639L47.6557 15.5166C47.4858 15.55 47.3301 15.5732 47.3108 15.5789C47.2758 15.6554 47.2625 15.74 47.2723 15.8236V16.0631H50.721V15.8281C50.721 15.5596 50.7209 15.5596 50.2786 15.5121L50.0056 15.4786L49.9909 12.6904C49.9762 9.931 49.9716 9.90212 49.8612 9.57135C49.7671 9.20439 49.5653 8.87398 49.2818 8.62267C48.9659 8.35451 48.5739 8.19211 48.1609 8.15825C47.8855 8.10462 47.6021 8.10616 47.3272 8.16278Z" fill="#020A19"/>
<path d="M17.7579 8.5373V8.77233L17.9879 8.80123C18.1125 8.82049 18.2711 8.84539 18.3475 8.85785L18.4772 8.88675L18.4676 12.1717L18.4529 15.4629L18.1437 15.5156C17.9737 15.549 17.818 15.5722 17.7987 15.5779C17.7637 15.6544 17.7504 15.739 17.7602 15.8226V16.0622H21.2151L21.2009 15.8413C21.1817 15.5762 21.1483 15.549 20.7699 15.5105L20.4924 15.4816V8.30225H17.7579V8.5373Z" fill="#020A19"/>
</svg>
