<svg width="151" height="57" viewBox="0 0 151 57" fill="none" xmlns="http://www.w3.org/2000/svg">
<g clip-path="url(#clip0_40_188)">
<path d="M146.878 0.165283H4.74237C2.57388 0.165283 0.815979 1.92319 0.815979 4.09167V52.7789C0.815979 54.9474 2.57388 56.7053 4.74237 56.7053H146.878C149.046 56.7053 150.804 54.9474 150.804 52.7789V4.09167C150.804 1.92319 149.046 0.165283 146.878 0.165283Z" fill="white"/>
<path d="M146.878 0.361816H4.74237C2.68231 0.361816 1.0123 2.03183 1.0123 4.09189V52.7791C1.0123 54.8392 2.68231 56.5092 4.74237 56.5092H146.878C148.938 56.5092 150.608 54.8392 150.608 52.7791V4.09189C150.608 2.03183 148.938 0.361816 146.878 0.361816Z" stroke="#E5E5E5" stroke-width="0.392639"/>
<path d="M53.8419 38.8356H57.4667V23.4025H53.8419V38.8356ZM55.6464 21.3796C55.9102 21.3871 56.1727 21.3415 56.4186 21.2458C56.6644 21.15 56.8885 21.0059 57.0777 20.8219C57.2669 20.638 57.4172 20.4181 57.5199 20.175C57.6226 19.932 57.6755 19.6708 57.6755 19.407C57.6755 19.1432 57.6226 18.882 57.5199 18.639C57.4172 18.3959 57.2669 18.176 57.0777 17.992C56.8885 17.8081 56.6644 17.664 56.4186 17.5682C56.1727 17.4725 55.9102 17.4269 55.6464 17.4344C55.1233 17.4344 54.6215 17.6422 54.2516 18.0121C53.8817 18.3821 53.6738 18.8838 53.6738 19.407C53.6738 19.9302 53.8817 20.4319 54.2516 20.8018C54.6215 21.1718 55.1233 21.3796 55.6464 21.3796ZM69.5357 17.4776C63.4105 17.4776 59.5626 21.656 59.5626 28.338C59.5626 35.0199 63.4066 39.1866 69.5357 39.1866C75.6475 39.1866 79.4953 35.0246 79.4953 28.3387C79.4953 21.6529 75.6475 17.4776 69.5357 17.4776ZM69.5357 20.6807C73.2775 20.6807 75.6608 23.6506 75.6608 28.3387C75.6608 33.0119 73.2736 35.9819 69.5357 35.9819C65.7797 35.9819 63.4105 33.0119 63.4105 28.3387C63.4073 23.6506 65.7797 20.6807 69.5357 20.6807ZM81.0235 32.9248C81.1805 36.7978 84.357 39.185 89.1904 39.185C94.2711 39.185 97.4743 36.6808 97.4743 32.6923C97.4743 29.5622 95.6681 27.8008 91.4033 26.8255L88.987 26.2758C86.4097 25.6641 85.3472 24.849 85.3472 23.4488C85.3472 21.7016 86.9484 20.537 89.3215 20.537C91.7237 20.537 93.3688 21.7149 93.5432 23.6781H97.124C97.0369 19.9802 93.9829 17.4744 89.3498 17.4744C84.7779 17.4744 81.5316 19.9928 81.5316 23.7197C81.5316 26.7187 83.366 28.5822 87.2382 29.4703L89.9607 30.1111C92.6103 30.7393 93.6877 31.611 93.6877 33.125C93.6877 34.8723 91.9263 36.124 89.393 36.124C86.8306 36.124 84.8949 34.8573 84.6617 32.9208H81.0235V32.9248Z" fill="black"/>
</g>
<defs>
<clipPath id="clip0_40_188">
<rect width="149.988" height="56.54" fill="white" transform="translate(0.815979 0.165283)"/>
</clipPath>
</defs>
</svg>
