<svg width="122" height="26" viewBox="0 0 122 26" fill="none" xmlns="http://www.w3.org/2000/svg">
<path d="M8.32829 9.09392C7.92813 8.99388 6.92771 8.89384 5.82725 9.19397C5.42709 9.29401 4.62676 9.49409 3.82642 9.89426V2.59122C3.82642 1.49076 2.92605 0.69043 1.92563 0.69043C0.925216 0.69043 0.0248413 1.5908 0.0248413 2.59122V23.3999C0.0248413 24.5003 0.925216 25.3007 1.92563 25.3007C3.02609 25.3007 3.82642 24.4003 3.82642 23.3999V15.8968C4.02651 15.1965 4.22659 14.6963 4.62675 14.196C4.82684 13.8959 5.52713 13.1956 6.62759 13.0956C8.22825 12.8955 9.32871 13.7959 9.52879 13.996C10.7293 15.0964 10.7293 16.497 10.7293 16.6971V23.8C10.7293 24.7004 11.5296 25.5007 12.53 25.5007C13.5305 25.5007 14.3308 24.7004 14.3308 23.8V16.2969C14.3308 14.7963 13.8306 13.6958 13.5305 13.1956C12.6301 10.8947 10.5292 9.39405 8.32829 9.09392Z" fill="#020A19"/>
<path d="M78.2574 8.89407C77.9572 8.89407 77.457 8.79403 76.9568 8.89407C74.1557 9.09416 72.1548 10.8949 71.7547 11.2951C69.4537 13.596 69.3537 16.4972 69.3537 16.9974C69.3537 17.8978 69.4537 20.2988 71.2545 22.3997C72.555 23.9003 74.5558 24.9007 76.9568 25.1008C77.257 25.1008 77.5571 25.2009 78.0573 25.2009C81.4587 25.1008 83.7597 22.5998 83.8597 22.4997C84.1598 22.1996 85.7605 20.0987 85.7605 17.0975C85.8605 12.7957 82.5592 9.1942 78.2574 8.89407ZM81.7588 17.1975C81.6588 19.4985 79.658 21.2992 77.357 21.1992C75.056 21.0991 73.1552 19.1984 73.2553 16.8974C73.3553 14.5964 75.3562 12.7957 77.6571 12.8957C80.0581 12.8957 81.8589 14.8966 81.7588 17.1975Z" fill="#020A19"/>
<path d="M59.8497 9.09418C58.3491 9.09418 56.9485 9.49435 55.748 10.2947C55.4479 9.49435 54.7476 8.99414 53.8472 8.99414C52.7467 8.99414 51.8464 9.89452 51.8464 10.995V23.2C51.8464 24.3005 52.7467 25.2009 53.8472 25.2009C53.9472 25.2009 53.9472 25.2009 54.0473 25.2009C54.1473 25.2009 54.1473 25.2009 54.2474 25.2009C55.1477 25.2009 55.9481 24.5006 55.9481 23.5002V16.5973C55.9481 16.4973 56.0481 16.2972 56.1482 15.9971C56.1482 15.897 56.3482 15.2968 56.4483 14.9966C56.8485 14.0963 57.5487 13.5961 57.7488 13.496C58.5492 12.9958 59.2495 12.8958 59.4495 12.8958C60.0498 12.8958 60.45 12.9958 60.7501 12.9958C60.9502 13.0958 61.7505 13.2959 62.3507 13.8962C63.3512 14.8966 63.5512 16.1971 63.5512 16.4973C63.5512 18.7982 63.5512 21.0992 63.5512 23.4001C63.5512 23.6002 63.6513 24.1004 64.1515 24.5006C64.7517 25.0008 65.352 25.0008 65.452 25.0008C66.3524 25.0008 67.1527 24.3005 67.1527 23.3001V15.9971C67.0527 15.1967 66.8526 13.8962 66.0523 12.5956C65.8522 12.3956 63.7513 9.19422 59.8497 9.09418Z" fill="#020A19"/>
<path d="M118.274 10.6954C116.373 9.19477 114.172 9.09473 113.872 9.09473C113.572 9.09473 112.472 9.09473 111.071 9.49489C109.37 10.0951 108.27 10.9955 107.97 11.2956C105.569 13.4966 105.469 16.4978 105.369 16.998C105.369 17.6983 105.269 20.1993 107.069 22.5003C108.97 24.8013 111.471 25.2014 112.171 25.3015C113.272 25.5016 114.372 25.4015 114.673 25.3015C115.173 25.2014 115.973 25.1014 117.074 24.7012C118.474 24.101 119.374 23.3006 119.975 22.6003C120.275 21.8 120.275 20.9997 119.775 20.4995C119.374 20.0993 118.874 19.8992 118.774 19.8992C117.874 19.6991 117.074 20.1993 116.973 20.2994C116.773 20.4995 116.473 20.7996 116.073 20.9997C115.273 21.4999 114.472 21.4999 113.972 21.4999C113.572 21.4999 112.171 21.5999 110.971 20.5995C109.871 19.7992 109.47 18.7988 109.27 18.3986H120.975C121.375 15.3973 120.375 12.3961 118.274 10.6954ZM110.871 13.7967C111.971 13.0964 112.972 12.9963 113.472 12.9963C113.872 12.9963 114.873 12.9963 115.873 13.6966C116.473 14.0968 116.773 14.597 117.074 14.9972H109.77C109.971 14.597 110.371 14.1968 110.871 13.7967Z" fill="#020A19"/>
<path d="M38.2407 16.4969C39.2411 15.4965 40.1415 14.4961 41.1419 13.4957C39.9414 12.2952 38.7409 11.0947 37.4404 9.89419C36.6401 9.09386 35.3395 9.09386 34.5392 9.89419C33.7389 10.6945 33.7389 11.9951 34.5392 12.7954C35.7397 13.9959 36.9402 15.1964 38.2407 16.4969Z" fill="#020A19"/>
<path d="M49.1453 9.49397C48.3449 8.69364 47.0444 8.79368 46.3441 9.59402L34.5392 21.8991C33.7389 22.6995 33.8389 24 34.6392 24.7003C35.4396 25.5006 36.7401 25.4006 37.4404 24.6003L41.7422 20.0984L46.144 24.5002C46.9444 25.3005 48.2449 25.3005 49.0452 24.5002C49.8456 23.6999 49.8456 22.3993 49.0452 21.599L44.6434 17.0971L49.2453 12.2951C50.0457 11.4948 49.9456 10.2943 49.1453 9.49397Z" fill="#020A19"/>
<path d="M101.767 0.390625C100.667 0.390625 99.7663 1.291 99.7663 2.39146V10.3948C98.6659 9.59445 97.2653 9.09424 95.8647 8.9942C95.5646 8.9942 95.0644 8.89416 94.5642 8.9942C91.763 9.19429 89.8622 10.995 89.462 11.3952C87.061 13.5961 87.061 16.4973 87.061 16.9975C87.061 17.8979 87.1611 20.2989 88.9618 22.3998C90.2624 23.9004 92.1632 24.9008 94.5642 25.1009C94.8643 25.1009 95.1644 25.2009 95.6646 25.2009C97.4654 25.1009 98.8659 24.4006 99.8664 23.7003C100.066 24.5007 100.867 25.1009 101.767 25.1009C102.868 25.1009 103.768 24.2005 103.768 23.1001V2.29142C103.668 1.291 102.768 0.390625 101.767 0.390625ZM99.4662 17.1976C99.3662 19.5986 97.3653 21.4994 94.9643 21.3994C92.5633 21.2993 90.7626 19.2985 90.8626 16.8975C90.9627 14.4965 92.9635 12.5957 95.3645 12.6957C97.7655 12.7958 99.5662 14.7966 99.4662 17.1976Z" fill="#020A19"/>
<path d="M29.337 10.795C27.4362 9.29438 25.2353 9.19434 24.9352 9.19434C24.6351 9.19434 23.5346 9.19434 22.134 9.5945C20.4333 10.1948 19.3329 11.0951 19.0327 11.3953C16.6317 13.5962 16.5317 16.5974 16.4317 17.0976C16.4317 17.7979 16.3316 20.299 18.1324 22.5999C20.0332 24.9009 22.5342 25.301 23.2345 25.4011C24.335 25.6012 25.4354 25.5011 25.7355 25.4011C26.2357 25.301 27.0361 25.201 28.1365 24.8008C29.5371 24.2006 30.4375 23.4002 31.0377 22.7C31.3379 21.8996 31.3379 21.0993 30.8377 20.5991C30.4375 20.1989 29.9373 19.9988 29.8372 19.9988C28.9369 19.7987 28.1365 20.299 28.0365 20.399C27.8364 20.5991 27.5363 20.8992 27.1361 21.0993C26.3358 21.5995 25.5355 21.5995 25.0352 21.5995C24.6351 21.5995 23.2345 21.6995 22.034 20.6991C20.9335 19.8988 20.5334 18.8984 20.3333 18.4982H32.0382C32.4383 15.3969 31.4379 12.4957 29.337 10.795ZM21.934 13.8963C23.0344 13.196 24.0348 13.096 24.535 13.096C24.9352 13.096 25.9356 13.096 26.936 13.7962C27.5363 14.1964 27.8364 14.6966 28.1365 15.0968H20.8335C21.0336 14.6966 21.4337 14.1964 21.934 13.8963Z" fill="#020A19"/>
</svg>
