<svg width="69" height="32" viewBox="0 0 69 32" fill="none" xmlns="http://www.w3.org/2000/svg">
<path d="M68.3438 31.2567H0.248291V10.7968H5.73191V7.74886H16.6974L34.2804 0.285156L51.8849 7.74886H62.8503V10.7968H68.3339V31.2585L68.3438 31.2567ZM52.854 26.8822L52.9163 26.9C54.3198 27.3459 55.7774 27.5985 57.249 27.6507C58.1372 27.7154 59.0215 27.4812 59.7613 26.9855C60.1559 26.648 60.4766 26.2327 60.7035 25.7656C60.9303 25.2985 61.0584 24.7898 61.0798 24.271C61.1087 23.7634 61.0078 23.2567 60.7865 22.799L60.7651 22.7572C60.7566 22.7483 60.7497 22.7379 60.7446 22.7268C60.7393 22.7152 60.732 22.7047 60.7232 22.6956L60.7027 22.6547C60.191 21.6625 59.0891 20.8414 57.3328 20.1487L57.2705 20.1282L57.2392 20.1147C56.8577 19.9605 55.8476 19.5496 55.7237 18.9041C55.7077 18.7813 55.7222 18.6563 55.766 18.5404C55.8099 18.4246 55.8818 18.3213 55.9751 18.2399C56.1138 18.1152 56.276 18.0195 56.4522 17.9582C56.6284 17.897 56.8151 17.8716 57.0012 17.8834C57.6812 17.9174 58.3486 18.0791 58.9687 18.3602C59.8682 18.7329 60.6625 19.0654 60.6625 19.0654L60.7463 19.1066V16.6005L60.725 16.5801C59.6734 15.9325 58.5089 15.4893 57.2928 15.2739C57.1038 15.2543 56.8924 15.2543 56.707 15.2543C56.0177 15.2078 55.3282 15.3398 54.7048 15.6374C54.0814 15.9351 53.5453 16.3883 53.1481 16.9536C52.825 17.4675 52.64 18.0562 52.6108 18.6625C52.5815 19.2689 52.7092 19.8726 52.9814 20.4153C53.6982 21.4691 54.7431 22.2563 55.9537 22.6547L56.1017 22.7198C56.5262 22.8992 56.9386 23.1057 57.3364 23.3384C57.5559 23.4346 57.738 23.6 57.8552 23.8091C57.9723 24.0183 58.018 24.2599 57.9854 24.4973C57.8881 24.7316 57.7166 24.9274 57.4972 25.0548C57.2779 25.1821 57.0228 25.2341 56.7712 25.2025C56.6868 25.2057 56.6024 25.1986 56.5198 25.1812H56.4993C55.2742 24.9197 54.0705 24.5662 52.8985 24.1239L52.8147 24.1034V26.8617L52.8566 26.8822H52.854ZM42.4501 15.6492V27.1327H49.8603V24.4582H45.5695V22.6948H49.8603V20.1041H45.5695V18.3415H49.8603V15.6466L42.4501 15.6492ZM8.01594 13.1825V27.1353H15.9289V24.4608H11.1148V13.1817L8.01594 13.1825ZM34.2848 26.1387C34.3215 26.4243 34.4647 26.6856 34.6856 26.8704C34.9066 27.0552 35.1891 27.1497 35.4768 27.1353H39.1819C39.5738 27.1367 39.9504 26.9827 40.229 26.7069C40.5076 26.4312 40.6654 26.0563 40.668 25.6644V15.65H37.5478V24.4412H35.664V15.65H32.9218V24.4412H31.038V15.65H27.9178V25.6644C27.9204 26.0563 28.0783 26.4312 28.3569 26.7069C28.6355 26.9827 29.0119 27.1367 29.4039 27.1353H33.0885C33.3764 27.1525 33.66 27.0588 33.881 26.8734C34.102 26.6881 34.2437 26.4252 34.2769 26.1387H34.2848ZM18.6693 15.6492C18.2771 15.6477 17.9003 15.802 17.6217 16.0782C17.343 16.3543 17.1853 16.7297 17.1832 17.122V25.6644C17.1858 26.0563 17.3437 26.4312 17.6223 26.7069C17.9009 26.9827 18.2774 27.1367 18.6693 27.1353H24.678C25.07 27.1367 25.4466 26.9827 25.7251 26.7069C26.0037 26.4312 26.1616 26.0563 26.1642 25.6644V17.1255C26.162 16.7332 26.0044 16.358 25.7258 16.0819C25.4472 15.8057 25.0703 15.6514 24.678 15.6529L18.6693 15.6492ZM62.2718 15.5869C62.1467 15.5842 62.0223 15.6063 61.906 15.6522C61.7896 15.6981 61.6837 15.7668 61.5942 15.8542C61.5046 15.9411 61.4332 16.045 61.3842 16.1598C61.3352 16.2746 61.3096 16.398 61.3089 16.5228C61.3095 16.6476 61.3352 16.7713 61.3842 16.8861C61.4332 17.0009 61.5045 17.1046 61.5942 17.1914C61.6836 17.279 61.7895 17.3479 61.9059 17.3939C62.0222 17.4398 62.1467 17.4618 62.2718 17.4589C62.3968 17.4617 62.5212 17.4396 62.6375 17.3936C62.7539 17.3477 62.8599 17.2789 62.9493 17.1914C63.0389 17.1046 63.1102 17.0007 63.1592 16.8859C63.2082 16.7711 63.2338 16.6476 63.2345 16.5228C63.2339 16.3981 63.2085 16.2748 63.1597 16.16C63.1108 16.0452 63.0396 15.9412 62.9502 15.8542C62.8609 15.7668 62.755 15.6984 62.6388 15.6524C62.5226 15.6065 62.3984 15.5842 62.2735 15.5869H62.2718ZM50.528 13.1797V16.4971H52.706L53.1454 13.1797H50.528ZM23.0439 24.4377H20.307V18.3415H23.0493V24.4368L23.0439 24.4377ZM62.2699 17.2842C62.1663 17.286 62.0635 17.2669 61.9676 17.2278C61.8717 17.1887 61.7847 17.1306 61.7118 17.0569C61.639 16.9833 61.5818 16.8956 61.5438 16.7992C61.5058 16.7029 61.4878 16.5998 61.4908 16.4963C61.488 16.3933 61.5058 16.2907 61.5435 16.1948C61.5812 16.0989 61.6379 16.0115 61.7101 15.938C61.7824 15.8646 61.8688 15.8066 61.9641 15.7674C62.0594 15.7281 62.1615 15.7087 62.2646 15.7099C62.3674 15.7096 62.4693 15.7299 62.5643 15.7695C62.6592 15.8092 62.7452 15.8674 62.8173 15.9408C62.8895 16.0141 62.9463 16.101 62.9845 16.1966C63.0226 16.2921 63.0412 16.3943 63.0393 16.4971C63.042 16.5998 63.0242 16.7019 62.9866 16.7975C62.9491 16.8931 62.8927 16.9801 62.8209 17.0535C62.7492 17.1268 62.6634 17.1848 62.5687 17.2243C62.4741 17.2638 62.3725 17.2847 62.2699 17.2842ZM61.8937 15.9783V17.0569H62.0614V16.5801H62.2494L62.5427 17.0578H62.7318L62.4179 16.5801C62.455 16.5791 62.4916 16.5706 62.5254 16.5552C62.5593 16.5399 62.5898 16.5181 62.615 16.4908C62.6404 16.4638 62.66 16.432 62.6729 16.3972C62.6857 16.3625 62.6915 16.3254 62.6899 16.2884C62.6899 16.0798 62.5633 15.9783 62.3128 15.9783H61.8937ZM62.2709 16.456V16.4355H62.0819V16.1047H62.3118C62.4232 16.1047 62.5419 16.1484 62.5419 16.2697C62.5419 16.44 62.4018 16.4543 62.2699 16.4543L62.2709 16.456Z" fill="#020A19"/>
</svg>
