<svg width="95" height="31" viewBox="0 0 95 31" fill="none" xmlns="http://www.w3.org/2000/svg">
<path d="M17.2003 30.7502V25.8603H18.2799V30.7502H17.2003ZM23.76 30.7502L21.3993 27.6478V30.7502H20.3375V25.8603H21.3324L23.6093 28.8789V25.8603H24.6711V30.7502H23.76ZM28.5152 26.8526V30.7502H27.4356V26.8526H25.9522V25.8576H29.9996V26.8526H28.5152ZM31.2994 30.7502V25.8603H34.9759V26.8205H32.3629V27.8011H34.6595V28.7622H32.3629V29.8061H35.008V30.7671L31.2994 30.7502ZM39.7472 30.7502L38.7033 29.1821H37.8608V30.7502H36.7812V25.8603H39.01C40.1573 25.8603 40.8482 26.4674 40.8482 27.4793V27.4962C40.8657 27.8286 40.7728 28.1574 40.584 28.4315C40.3952 28.7056 40.1211 28.9096 39.8043 29.0118L41.0016 30.7654H39.7535L39.7472 30.7502ZM39.7642 27.5292C39.7642 27.0576 39.4441 26.8383 38.9217 26.8383H37.8599V28.238H38.9395C39.462 28.238 39.766 27.9509 39.766 27.5292H39.7642ZM46.0368 30.7502L43.6779 27.6496V30.752H42.6161V25.8621H43.611L45.8879 28.8807V25.8621H46.9497V30.752L46.0368 30.7502ZM52.2933 30.7502L51.8547 29.6537H49.7811L49.3425 30.7502H48.2423L50.3302 25.8264H51.3252L53.413 30.7502H52.2933ZM50.8099 27.1084L50.1689 28.6935H51.4678L50.8099 27.1084ZM56.2222 26.8561V30.7538H55.1426V26.8561H53.6591V25.8612H57.7074V26.8561H56.2222ZM59.1222 30.7538V25.8666H60.2018V30.7564L59.1222 30.7538ZM64.4507 30.8376C64.1149 30.8476 63.7805 30.79 63.4674 30.6682C63.1543 30.5463 62.8689 30.3628 62.6281 30.1284C62.3874 29.894 62.1963 29.6136 62.0662 29.3038C61.9361 28.9941 61.8696 28.6613 61.8707 28.3253V28.3084C61.8685 27.6219 62.139 26.9626 62.6229 26.4756C63.1067 25.9886 63.7642 25.7137 64.4507 25.7114C65.1372 25.7092 65.7965 25.9798 66.2835 26.4636C66.7705 26.9474 67.0454 27.6049 67.0476 28.2914V28.3084C67.0504 28.647 66.9846 28.9827 66.8541 29.2953C66.7237 29.6079 66.5314 29.8908 66.2888 30.1271C66.0462 30.3634 65.7583 30.5481 65.4424 30.6702C65.1265 30.7923 64.7892 30.8492 64.4507 30.8376ZM65.9342 28.3084C65.9414 28.1136 65.91 27.9193 65.8418 27.7367C65.7736 27.5541 65.6699 27.3869 65.5367 27.2446C65.4035 27.1023 65.2435 26.9877 65.0658 26.9076C64.8881 26.8275 64.6964 26.7833 64.5015 26.7777H64.4498C64.2531 26.7778 64.0583 26.8175 63.8772 26.8943C63.6961 26.9711 63.5322 27.0835 63.3954 27.2249C63.2585 27.3662 63.1514 27.5336 63.0805 27.7172C63.0096 27.9007 62.9762 28.0966 62.9824 28.2932V28.3102C62.975 28.505 63.0063 28.6994 63.0745 28.8821C63.1426 29.0648 63.2463 29.2322 63.3795 29.3746C63.5127 29.517 63.6728 29.6316 63.8505 29.7118C64.0283 29.792 64.2201 29.8361 64.415 29.8418H64.4659C64.6638 29.8411 64.8596 29.8005 65.0416 29.7225C65.2235 29.6445 65.3879 29.5306 65.5249 29.3876C65.6618 29.2447 65.7686 29.0756 65.8387 28.8905C65.9089 28.7053 65.9411 28.508 65.9333 28.3102L65.9342 28.3084ZM72.2237 30.7538L69.863 27.6513V30.7538H68.8182V25.8666H69.8131L72.09 28.8852V25.8666H73.1517V30.7564L72.2237 30.7538ZM78.4802 30.7538L78.0416 29.6572H75.984L75.5454 30.7538H74.4489L76.5368 25.83H77.5317L79.6196 30.7538H78.4802ZM77.0128 27.112L76.3718 28.6971H77.6708L77.0128 27.112ZM80.824 30.7538V25.8666H81.9036V29.7785H84.3303V30.7591L80.824 30.7538Z" fill="#020A19"/>
<path d="M50.858 10.2457C50.2912 9.9434 49.6619 9.77677 49.0197 9.75893C48.5787 9.76486 48.1463 9.88244 47.7629 10.1007C47.3796 10.3189 47.0578 10.6308 46.8275 11.007V20.9704H42.9308V6.99082H46.4888L46.7081 8.45823C47.0029 7.93798 47.426 7.50188 47.937 7.19148C48.4481 6.88109 49.0302 6.70673 49.6278 6.68504C50.0473 6.6908 50.4632 6.76487 50.8589 6.90435V10.2448L50.858 10.2457ZM60.1029 6.90524C59.7054 6.77209 59.2907 6.6979 58.8717 6.68504C58.2749 6.70691 57.6935 6.88107 57.183 7.19096C56.6724 7.50086 56.2496 7.93618 55.9547 8.45556L55.7345 6.99082H52.1739V20.9704H56.0715V11.0044C56.3037 10.6298 56.6259 10.3194 57.0088 10.1014C57.3917 9.88338 57.8232 9.76472 58.2637 9.75626C58.9062 9.77424 59.5358 9.94117 60.1029 10.2439V6.90524ZM40.5594 11.0061V20.9704H36.9845L36.7652 19.52C36.3089 20.0708 35.7362 20.5137 35.0883 20.8169C34.4405 21.1201 33.7335 21.2761 33.0182 21.2735C32.5029 21.2778 31.9922 21.1756 31.5183 20.9731C31.0444 20.7707 30.6174 20.4725 30.2642 20.0972C29.911 19.7219 29.6393 19.2776 29.4659 18.7923C29.2926 18.307 29.2214 17.7911 29.257 17.2769C29.257 12.3354 35.0749 11.6453 36.676 11.4768V11.0694C36.676 10.26 36.0021 9.41748 34.1968 9.41748C32.8886 9.45083 31.6225 9.88665 30.571 10.6656V7.78426C32.0853 7.05806 33.7459 6.68873 35.4253 6.70465C39.0002 6.68504 40.5514 8.32361 40.5514 11.0044L40.5594 11.0061ZM36.6564 14.1888C35.4253 14.1888 33.1662 14.6105 33.1662 16.5664C33.1495 16.7788 33.1758 16.9924 33.2436 17.1944C33.3115 17.3964 33.4194 17.5826 33.5609 17.7418C33.7024 17.9011 33.8746 18.0301 34.0672 18.1212C34.2598 18.2123 34.4689 18.2635 34.6818 18.2719C35.7783 18.2719 36.6546 17.4793 36.6546 15.6919L36.6564 14.1888ZM15.3121 2.85694L18.8193 10.3803L17.4535 13.3312L11.6053 0.769043L7.16828 2.84267L10.6585 10.3634C10.3911 10.9535 9.94976 11.895 9.24191 13.415C7.64167 16.8383 6.40961 17.7967 4.21742 17.7967C3.61412 17.7834 3.01666 17.6754 2.4469 17.4766L0.372375 21.9315C1.41995 22.37 2.54163 22.6045 3.67717 22.6224C6.27411 22.6224 8.17924 20.9357 9.82852 17.3786L11.8727 12.9933L15.5823 20.9856H20.9946L18.6481 15.9442L20.0139 12.9933L23.7297 20.9856H29.142L19.7643 0.769043L15.3121 2.85694ZM92.9618 6.99082V2.37374L89.0659 4.19151V6.99082H87.8178V9.41659H89.0659V20.9731H92.9636V9.41659H94.9365V6.99082H92.9618ZM61.5498 20.9704H65.4474V6.99082H61.5498V20.9704ZM84.7003 2.37374L80.8035 4.19151V6.99082H79.5554V9.41659H80.8035V20.9731H84.7011V9.41659H86.6749V6.99082H84.7011L84.7003 2.37374ZM78.6639 12.8239V15.1222C78.6639 18.4626 77.0449 21.2602 73.0475 21.2602C69.0678 21.2602 67.431 18.476 67.431 15.1222V12.8239C67.431 9.48346 69.05 6.68593 73.0475 6.68593C77.0449 6.68593 78.6639 9.50574 78.6639 12.8239ZM74.7351 12.2845C74.7351 10.6139 74.3303 9.43175 73.0483 9.43175C71.7664 9.43175 71.3625 10.6139 71.3625 12.2845V15.6928C71.3625 17.3634 71.7673 18.5456 73.0492 18.5456C74.3482 18.5456 74.736 17.3625 74.736 15.6928L74.7351 12.2845Z" fill="#020A19"/>
</svg>
