<svg width="104" height="31" viewBox="0 0 104 31" fill="none" xmlns="http://www.w3.org/2000/svg">
<path d="M49.1649 7.88166H53.8221V22.915H50.3711V12.8054L45.9555 22.9141L41.3081 12.7894V22.9106H38.088V7.87988H42.6908L46.0099 15.66L49.1649 7.88166Z" fill="#020A19"/>
<path d="M55.5391 7.88166V22.915H64.2125V20.3671H58.9019V16.5426H63.9932V13.9662H58.9019V10.5178H64.2125V7.87988L55.5391 7.88166Z" fill="#020A19"/>
<path d="M77.1473 15.3996C77.1473 20.9956 82.9875 25.4736 89.1398 22.4782V19.2581C84.4068 22.5753 80.2836 19.25 80.3514 15.5289C80.3456 14.8766 80.4684 14.2295 80.7127 13.6246C80.957 13.0197 81.3181 12.4689 81.7753 12.0036C82.2326 11.5382 82.777 11.1675 83.3775 10.9126C83.9779 10.6577 84.6228 10.5235 85.2751 10.5178C85.9885 10.4449 86.709 10.539 87.3798 10.7926C88.0505 11.0462 88.6531 11.4523 89.1398 11.979V8.6296C84.6939 5.99433 77.1473 8.89705 77.1473 15.3943" fill="#020A19"/>
<path d="M90.559 22.9132H93.7533V8.02515H90.5564L90.559 22.9132Z" fill="#020A19"/>
<path d="M97.7668 14.8533L102.598 8.06006H98.8642L94.0778 14.8408L99.6345 22.9142H103.301L97.7668 14.8533Z" fill="#020A19"/>
<path d="M65.704 7.87715V22.9105H69.0757V14.8389L74.6529 22.9123H78.2501L73.8345 16.6005C74.6826 16.2896 75.4061 15.7107 75.8955 14.9515C76.3849 14.1923 76.6134 13.2943 76.5464 12.3935C76.5207 11.7734 76.3727 11.1644 76.1111 10.6016C75.8495 10.0388 75.4794 9.53309 75.022 9.11359C74.5645 8.69409 74.0288 8.369 73.4455 8.15698C72.8622 7.94496 72.2427 7.85018 71.6227 7.87805L65.704 7.87715ZM69.0757 10.3814H70.5484C73.0384 10.3814 73.1712 12.0093 73.1712 12.6173C73.1563 13.2015 72.9102 13.7559 72.4871 14.159C72.0639 14.5621 71.4982 14.781 70.9139 14.7676H69.0757V10.3814Z" fill="#020A19"/>
<path d="M7.81535 7.88168C7.81535 5.88813 8.60729 3.97624 10.0169 2.56659C11.4266 1.15694 13.3385 0.36499 15.332 0.36499C17.3256 0.36499 19.2375 1.15694 20.6471 2.56659C22.0568 3.97624 22.8487 5.88813 22.8487 7.88168H7.81535ZM7.81535 22.915C7.81535 20.9216 8.60724 19.0098 10.0168 17.6003C11.4264 16.1907 13.3382 15.3988 15.3316 15.3988C14.3445 15.3988 13.3672 15.2044 12.4553 14.8267C11.5433 14.4489 10.7148 13.8953 10.0168 13.1973C9.31886 12.4994 8.76522 11.6708 8.3875 10.7589C8.00977 9.84699 7.81535 8.86962 7.81535 7.88257C5.82181 7.88257 3.90991 8.67451 2.50026 10.0842C1.09061 11.4938 0.298676 13.4057 0.298676 15.3993C0.298676 17.3928 1.09061 19.3047 2.50026 20.7143C3.90991 22.124 5.82181 22.915 7.81535 22.915ZM7.81535 22.915C7.81535 24.9086 8.60729 26.8214 10.0169 28.231C11.4266 29.6407 13.3385 30.4326 15.332 30.4326C17.3256 30.4326 19.2375 29.6407 20.6471 28.231C22.0568 26.8214 22.8487 24.9095 22.8487 22.9159L7.81535 22.915ZM15.3316 15.3988C17.325 15.3988 19.2368 16.1916 20.6464 17.6012C22.0559 19.0107 22.8487 20.9225 22.8487 22.9159C24.8423 22.9159 26.7533 22.124 28.1629 20.7143C29.5726 19.3047 30.3645 17.3928 30.3645 15.3993C30.3645 13.4057 29.5726 11.4938 28.1629 10.0842C26.7533 8.67451 24.8414 7.88257 22.8478 7.88257C22.8478 8.86962 22.6534 9.84699 22.2757 10.7589C21.898 11.6708 21.3443 12.4994 20.6464 13.1973C19.9484 13.8953 19.1198 14.4489 18.2079 14.8267C17.296 15.2044 16.3186 15.3988 15.3316 15.3988Z" fill="#020A19"/>
</svg>
