<svg width="22" height="25" viewBox="0 0 22 25" fill="none" xmlns="http://www.w3.org/2000/svg">
<path d="M21.5 24.6401C21.5 24.6401 17.9645 23.2489 15.1047 22.1351H3.07775C1.655 22.1351 0.5 20.9096 0.5 19.3999V3.37314C0.5 1.86489 1.655 0.640137 3.07775 0.640137H18.9215C20.345 0.640137 21.4993 1.86414 21.4993 3.37389V17.1769L21.5 24.6401ZM18.3958 15.6536C18.3396 15.5815 18.2691 15.5219 18.1886 15.4785C18.1082 15.4351 18.0196 15.4088 17.9285 15.4014C17.8375 15.394 17.7458 15.4056 17.6594 15.4355C17.5731 15.4653 17.4938 15.5128 17.4268 15.5749C17.4043 15.5944 15.1655 17.5856 10.9992 17.5856C6.88475 17.5856 4.6115 15.6086 4.571 15.5726C4.50386 15.5109 4.42464 15.4637 4.33835 15.4341C4.25206 15.4045 4.16057 15.3931 4.06966 15.4007C3.97875 15.4082 3.89038 15.4345 3.81015 15.4779C3.72992 15.5213 3.65955 15.5809 3.6035 15.6529C3.48344 15.8027 3.42474 15.9925 3.43925 16.1839C3.45193 16.3743 3.53731 16.5526 3.67775 16.6819C3.78425 16.7779 6.3305 19.0444 10.9992 19.0444C15.6687 19.0444 18.215 16.7779 18.3215 16.6819C18.4617 16.5525 18.5468 16.3742 18.5592 16.1839C18.5738 15.9928 18.5154 15.8033 18.3958 15.6536Z" fill="white"/>
</svg>
