<svg width="50" height="16" viewBox="0 0 50 16" fill="none" xmlns="http://www.w3.org/2000/svg">
<path d="M6.59761 4.66069C6.8185 3.62592 6.67124 3.27817 8.18346 3.27817C10.1799 3.27817 14.5388 3.28723 14.5388 3.28723L15.1482 0.869377H7.43868C6.43166 0.869377 4.23413 0.575995 3.6383 4.43131C3.38173 6.08852 3.23561 6.9041 3.19879 7.4331C3.09855 8.78843 4.35307 9.18886 5.40482 9.18886H9.97547C10.6619 9.18886 10.9485 9.18886 10.8545 9.6833C10.6897 10.5623 10.3329 12.2563 10.2133 12.7689C10.0304 13.5743 9.05964 13.4554 8.1795 13.465H1.55687L0.982002 15.8874H9.2692C11.025 15.8874 12.6391 15.2831 13.0786 13.6162C13.5272 11.9131 13.7583 10.7594 14.0126 9.40352C14.3218 7.78255 13.2893 6.59203 11.3846 6.59203H7.35542C6.92497 6.59203 6.22267 6.69284 6.35747 5.98771C6.4141 5.67847 6.45828 5.30806 6.59534 4.66126" fill="#020A19"/>
<path d="M24.4056 15.8868H27.4816L25.595 0.887451H22.1463L13.4355 15.8868H16.7408C16.7408 15.8868 18.4071 13.0481 18.4807 12.9201H23.2513L23.7729 10.6857H19.6888C19.972 10.2281 23.1046 5.10921 23.1686 4.98971C23.1867 5.09052 24.4067 15.8868 24.4067 15.8868" fill="#020A19"/>
<path d="M35.6504 0.869141H32.1955L28.8743 15.8866H32.3909L35.6504 0.869141Z" fill="#020A19"/>
<path d="M40.7602 4.60517C40.861 4.12884 40.9868 3.27871 42.1427 3.27871H48.8073L49.4229 0.878418H41.2807C38.1855 0.878418 37.9839 3.86321 37.7828 4.85267C37.5817 5.84213 36.1969 12.0156 36.1346 12.2971C35.7773 14.0529 36.701 15.9049 39.3947 15.9049H46.825L47.3845 13.4797H40.5512C39.2418 13.4797 39.2055 12.7015 39.3975 11.7239L40.0772 8.18012C40.0772 8.18012 40.4617 6.00978 40.7636 4.60856" fill="#020A19"/>
</svg>
