<svg width="151" height="57" viewBox="0 0 151 57" fill="none" xmlns="http://www.w3.org/2000/svg">
<g clip-path="url(#clip0_40_39)">
<path d="M146.678 0.165283H4.54236C2.37388 0.165283 0.615974 1.92319 0.615974 4.09167V52.7789C0.615974 54.9474 2.37388 56.7053 4.54236 56.7053H146.678C148.846 56.7053 150.604 54.9474 150.604 52.7789V4.09167C150.604 1.92319 148.846 0.165283 146.678 0.165283Z" fill="white"/>
<path d="M146.678 0.361816H4.54236C2.4823 0.361816 0.812286 2.03183 0.812286 4.09189V52.7791C0.812286 54.8392 2.4823 56.5092 4.54236 56.5092H146.678C148.738 56.5092 150.408 54.8392 150.408 52.7791V4.09189C150.408 2.03183 148.738 0.361816 146.678 0.361816Z" stroke="#E5E5E5" stroke-width="0.392639"/>
<path d="M61.4444 17.1304L72.6872 15.4279L72.6919 27.4906L61.4546 27.562L61.4444 17.1304ZM72.6817 28.8829L72.6904 40.9565L61.453 39.2352V28.7996L72.6817 28.8829ZM74.045 15.2049L88.9511 12.7847V27.3367L74.045 27.4694V15.2049ZM88.955 28.9936V43.4804L74.0481 41.1403L74.0269 28.9685L88.955 28.9936Z" fill="#00ADEF"/>
</g>
<defs>
<clipPath id="clip0_40_39">
<rect width="149.988" height="56.54" fill="white" transform="translate(0.615974 0.165283)"/>
</clipPath>
</defs>
</svg>
